<svg
  width="240"
  height="240"
  viewBox="0 0 240 240"
  fill="none"
  xmlns="http://www.w3.org/2000/svg"
>
  <g clip-path="url(#clip0_119_172)">
    <path
      d="M152.362 53.9752H87.6923C86.2186 53.9771 84.8058 54.5776 83.7637 55.6452C82.7216 56.7127 82.1354 58.1601 82.1336 59.6699V206.914L81.3925 207.146L65.528 212.123C64.7761 212.358 63.964 212.277 63.27 211.899C62.5759 211.521 62.0566 210.877 61.826 210.107L14.6364 52.1947C14.4068 51.4244 14.4851 50.5923 14.8541 49.8811C15.223 49.1699 15.8525 48.638 16.6042 48.4021L41.0514 40.7333L111.924 18.509L136.371 10.8402C136.743 10.7229 137.134 10.6819 137.522 10.7196C137.91 10.7573 138.286 10.8729 138.63 11.0598C138.974 11.2467 139.278 11.5012 139.526 11.8088C139.774 12.1164 139.96 12.471 140.074 12.8523L152.136 53.2159L152.362 53.9752Z"
      fill="#F2F2F2"
    />
    <path
      d="M166.474 53.216L151.936 4.56865C151.694 3.7581 151.298 3.00431 150.772 2.35036C150.246 1.69642 149.599 1.15514 148.868 0.757449C148.138 0.359758 147.338 0.113447 146.514 0.0326031C145.69 -0.0482413 144.859 0.0379643 144.068 0.286285L109.697 11.0643L38.8279 33.2924L4.45678 44.0742C2.86008 44.5765 1.52314 45.7073 0.73942 47.2184C-0.0443016 48.7295 -0.210775 50.4974 0.276548 52.1341L49.9637 218.391C50.3596 219.712 51.1584 220.868 52.2429 221.69C53.3273 222.512 54.6404 222.957 55.9894 222.958C56.6138 222.958 57.2346 222.862 57.8311 222.673L81.3925 215.285L82.1337 215.05V214.257L81.3925 214.488L57.6125 221.948C56.2031 222.388 54.6809 222.238 53.3797 221.53C52.0785 220.821 51.1046 219.613 50.6716 218.171L0.98821 51.9101C0.773678 51.1952 0.698909 50.4439 0.768179 49.6994C0.83745 48.9549 1.04939 48.2316 1.39189 47.5711C1.73439 46.9106 2.20071 46.3258 2.76413 45.8502C3.32756 45.3746 3.97703 45.0175 4.67536 44.7994L39.0465 34.0175L109.916 11.7933L144.287 1.01141C144.817 0.845809 145.367 0.761373 145.921 0.760844C147.11 0.763578 148.266 1.15611 149.221 1.88095C150.176 2.60579 150.879 3.62484 151.228 4.78885L165.699 53.216L165.929 53.9753H166.7L166.474 53.216Z"
      fill="#E1E1E2"
    />
    <path
      d="M45.4629 48.5262C44.7487 48.5257 44.0534 48.2907 43.479 47.8557C42.9047 47.4207 42.4816 46.8085 42.2717 46.1091L37.4986 30.1369C37.3703 29.7078 37.3258 29.2571 37.3676 28.8105C37.4094 28.3638 37.5366 27.9299 37.7421 27.5337C37.9476 27.1374 38.2273 26.7865 38.5652 26.501C38.903 26.2154 39.2925 26.0009 39.7113 25.8696L104.911 5.42064C105.756 5.15624 106.67 5.24641 107.451 5.67138C108.232 6.09635 108.816 6.8214 109.076 7.68738L113.849 23.6598C114.107 24.5263 114.019 25.4622 113.604 26.2622C113.19 27.0623 112.482 27.661 111.637 27.9272L46.4373 48.3762C46.1216 48.4755 45.7932 48.526 45.4629 48.5262V48.5262Z"
      fill="#E1E1E2"
    />
    <path
      d="M70.4668 17.0667C74.5601 17.0667 77.8783 13.6673 77.8783 9.47385C77.8783 5.28043 74.5601 1.881 70.4668 1.881C66.3735 1.881 63.0552 5.28043 63.0552 9.47385C63.0552 13.6673 66.3735 17.0667 70.4668 17.0667Z"
      fill="#E1E1E2"
    />
    <path
      d="M70.4668 14.2819C73.0588 14.2819 75.16 12.1292 75.16 9.47383C75.16 6.81843 73.0588 4.6658 70.4668 4.6658C67.8748 4.6658 65.7736 6.81843 65.7736 9.47383C65.7736 12.1292 67.8748 14.2819 70.4668 14.2819Z"
      fill="white"
    />
    <path
      d="M223.324 221.018H98.0686C97.2334 221.017 96.4328 220.677 95.8423 220.072C95.2518 219.467 94.9196 218.646 94.9186 217.791V64.0357C94.9196 63.1802 95.2517 62.36 95.8423 61.755C96.4328 61.15 97.2334 60.8097 98.0686 60.8088H223.324C224.159 60.8098 224.96 61.1501 225.55 61.755C226.141 62.36 226.473 63.1802 226.474 64.0357V217.791C226.473 218.646 226.141 219.467 225.55 220.072C224.96 220.677 224.159 221.017 223.324 221.018V221.018Z"
      fill="#F2F2F2"
    />
    <path
      d="M165.699 53.2159H87.6923C86.0222 53.2184 84.4212 53.8991 83.2402 55.1089C82.0593 56.3187 81.3948 57.9589 81.3925 59.6699V214.488L82.1336 214.256V59.6699C82.1354 58.1601 82.7216 56.7127 83.7637 55.6452C84.8058 54.5776 86.2186 53.9771 87.6923 53.9752H165.929L165.699 53.2159ZM233.7 53.2159H87.6923C86.0222 53.2184 84.4212 53.8991 83.2402 55.1089C82.0593 56.3187 81.3948 57.9589 81.3925 59.6699V233.546C81.3948 235.257 82.0593 236.897 83.2402 238.107C84.4212 239.317 86.0222 239.998 87.6923 240H233.7C235.37 239.998 236.971 239.317 238.152 238.107C239.333 236.897 239.998 235.257 240 233.546V59.6699C239.998 57.9589 239.333 56.3187 238.152 55.1089C236.971 53.8991 235.37 53.2184 233.7 53.2159V53.2159ZM239.259 233.546C239.257 235.056 238.671 236.503 237.629 237.571C236.587 238.638 235.174 239.239 233.7 239.241H87.6923C86.2186 239.239 84.8058 238.638 83.7637 237.571C82.7216 236.503 82.1354 235.056 82.1336 233.546V59.6699C82.1354 58.1601 82.7216 56.7127 83.7637 55.6452C84.8058 54.5776 86.2186 53.9771 87.6923 53.9752H233.7C235.174 53.9771 236.587 54.5776 237.629 55.6452C238.671 56.7127 239.257 58.1601 239.259 59.6699V233.546Z"
      fill="#E1E1E2"
    />
    <path
      d="M194.79 69.9202H126.603C125.719 69.9192 124.871 69.5589 124.246 68.9183C123.621 68.2778 123.269 67.4093 123.268 66.5034V49.7991C123.269 48.8933 123.621 48.0248 124.246 47.3842C124.871 46.7437 125.719 46.3834 126.603 46.3824H194.79C195.674 46.3834 196.521 46.7437 197.147 47.3842C197.772 48.0248 198.124 48.8933 198.125 49.7991V66.5034C198.124 67.4093 197.772 68.2778 197.147 68.9183C196.522 69.5589 195.674 69.9192 194.79 69.9202V69.9202Z"
      fill="#E1E1E2"
    />
    <path
      d="M160.696 47.5213C164.79 47.5213 168.108 44.1219 168.108 39.9285C168.108 35.735 164.79 32.3356 160.696 32.3356C156.603 32.3356 153.285 35.735 153.285 39.9285C153.285 44.1219 156.603 47.5213 160.696 47.5213Z"
      fill="#E1E1E2"
    />
    <path
      d="M160.696 44.5532C163.189 44.5532 165.211 42.4826 165.211 39.9284C165.211 37.3743 163.189 35.3037 160.696 35.3037C158.203 35.3037 156.182 37.3743 156.182 39.9284C156.182 42.4826 158.203 44.5532 160.696 44.5532Z"
      fill="white"
    />
  </g>
  <defs>
    <clipPath id="clip0_119_172">
      <rect width="240" height="240" fill="white" />
    </clipPath>
  </defs>
</svg>
